<svg xmlns="http://www.w3.org/2000/svg" viewBox="0 0 284.47 284.47"><defs><style>.cls-1{fill:#2b65fc;}.cls-2{fill:#c6c6c5;stroke:#c6c6c5;}.cls-2,.cls-3{stroke-miterlimit:10;stroke-width:15px;}.cls-3{fill:#fff;stroke:#fff;}</style></defs><g id="Layer_2" data-name="Layer 2"><g id="Layer_1-2" data-name="Layer 1"><rect class="cls-1" width="284.47" height="284.47" rx="53.57"/><path class="cls-2" d="M172.08,89v69.19a3,3,0,0,0,1.39,2.52l53.76,33.81a3,3,0,0,0,4.55-2.51V128.22a3,3,0,0,0-1.39-2.51Z"/><path class="cls-3" d="M172.08,89l-59,72.3a3,3,0,0,0-.67,1.88v64.4a3,3,0,0,1-4.55,2.51L54.07,196.3a3,3,0,0,1-1.38-2.51V125.66a3,3,0,0,1,.66-1.88l57.37-70.26a3,3,0,0,1,3.88-.64Z"/></g></g></svg>