<svg xmlns="http://www.w3.org/2000/svg" viewBox="0 0 284.47 284.47"><defs><style>.cls-1{fill:#2b65fc;}.cls-2{fill:#fff;}</style></defs><g id="Layer_2" data-name="Layer 2"><g id="Layer_1-2" data-name="Layer 1"><rect class="cls-1" width="284.47" height="284.47" rx="53.57"/><path class="cls-2" d="M197.41,220V159.22a10.88,10.88,0,0,0-10.89-10.88H97.94a10.88,10.88,0,0,0-10.88,10.88V220a17.29,17.29,0,0,1-17.28,17.29H51.2A17.29,17.29,0,0,1,33.92,220V141.37a26.57,26.57,0,0,1,9.93-20.71L125.59,55a26.56,26.56,0,0,1,33.28,0l81.75,65.68a26.6,26.6,0,0,1,9.93,20.71V220a17.29,17.29,0,0,1-17.29,17.29H214.69A17.28,17.28,0,0,1,197.41,220Z"/></g></g></svg>